<svg xmlns="http://www.w3.org/2000/svg"  viewBox="0 0 24 24" width="24px" height="24px"><path d="M 11.980469 0.98242188 A 1.250125 1.250125 0 0 0 10.75 2.25 L 10.75 3.2519531 C 6.9319279 3.8743213 3.9433594 7.0422018 3.9433594 11.017578 L 3.9433594 13.917969 C 3.9433594 16.259348 2.3691406 17.863281 2.3691406 17.863281 A 1.250125 1.250125 0 0 0 3.25 20 L 8.8007812 20 C 8.936845 21.659569 10.308451 23 12 23 C 13.691549 23 15.063155 21.659569 15.199219 20 L 20.75 20 A 1.250125 1.250125 0 0 0 21.630859 17.863281 C 21.630859 17.863281 20.056641 16.259348 20.056641 13.917969 L 20.056641 11.017578 C 20.056641 7.0422018 17.068072 3.8743213 13.25 3.2519531 L 13.25 2.25 A 1.250125 1.250125 0 0 0 11.980469 0.98242188 z M 12 5.5 C 15.087279 5.5 17.556641 7.9600448 17.556641 11.017578 L 17.556641 13.917969 C 17.556641 15.372334 17.986992 16.548286 18.460938 17.5 L 5.5390625 17.5 C 6.0130065 16.548286 6.4433594 15.372334 6.4433594 13.917969 L 6.4433594 11.017578 C 6.4433594 7.9600448 8.9127212 5.5 12 5.5 z M 11.5 20 L 12.5 20 C 12.373342 20.222222 12.286692 20.5 12 20.5 C 11.713308 20.5 11.626658 20.222222 11.5 20 z"/></svg>